<?xml version="1.0" encoding="iso-8859-1"?>
<!-- Generator: Adobe Illustrator 19.0.0, SVG Export Plug-In . SVG Version: 6.00 Build 0)  -->
<svg version="1.1" id="Layer_1" xmlns="http://www.w3.org/2000/svg" xmlns:xlink="http://www.w3.org/1999/xlink" x="0px" y="0px"
	 viewBox="0 0 511.997 511.997" style="enable-background:new 0 0 511.997 511.997;" xml:space="preserve">
<g>
	<g>
		<g>
			<path d="M511.911,77.201c-1.017-11.857-11.509-23.912-25.516-22.966c-33.116,2.243-64.409,11.114-93.008,26.369
				c-16.502,8.802-32.448,19.938-47.647,33.232c-0.33,0.25-0.642,0.525-0.942,0.816c-7.089,6.255-14.013,12.981-20.753,20.168
				c-38.989,41.568-65.195,90.441-86.253,129.71c-9.171,17.103-17.09,31.875-24.209,42.393
				c-7.302,10.792-11.436,13.554-13.204,14.248c-1.02-1.078-3.581-4.615-6.735-15.122c-2.967-9.873-5.44-22.199-8.058-35.246
				c-6.264-31.216-11.698-58.26-25.477-68.344c-7.829-6.747-21.863-6.753-27.293-6.753c-15.626,0-35.831,3.108-56.895,8.753
				c-20.004,5.36-38.393,12.395-51.78,19.81c-6.234,3.454-24.562,13.616-22.914,27.472c-4.627,53.191,3.842,98.257,25.191,133.959
				c19.207,32.119,48.013,54.756,83.301,65.461c14.658,4.447,29.976,6.656,45.432,6.655c21.259,0,42.778-4.181,63.168-12.467
				c36.639-14.891,67.37-42.474,86.531-77.668c16.351-30.036,26.168-64.978,35.661-98.769
				c22.642-80.6,44.027-156.729,149.292-167.661C506.353,99.53,512.832,87.932,511.911,77.201z M81.09,223.758
				c19.143-5.129,37.996-8.071,51.724-8.071c4.171,0,7.209,0.268,9.383,0.604c-7.61,6.001-26.73,16.013-56.668,24.035
				c-19.143,5.128-37.996,8.07-51.724,8.07c-4.171,0-7.21-0.268-9.383-0.604C32.03,241.792,51.151,231.779,81.09,223.758z
				 M20.247,267.395c5.463,0.981,10.701,0.982,13.558,0.982c15.625,0,35.831-3.108,56.895-8.751
				c20.003-5.36,38.391-12.395,51.778-19.811c2.819-1.561,8.115-4.499,12.92-8.526c0.597,1.636,1.214,3.471,1.848,5.541
				c1.779,5.819,3.397,12.466,4.925,19.422c-10.227,13.369-35.473,26.599-67.406,35.106c-28.01,7.463-56.954,10.031-73.971,6.863
				C20.011,288.344,19.823,278.055,20.247,267.395z M368.278,146.678c-23.582,33.442-35.49,75.833-47.007,116.828
				c-9.194,32.724-18.701,66.564-33.975,94.62c-27.21,49.977-78.652,79.868-131.551,79.865c-13.438-0.001-26.978-1.931-40.229-5.951
				c-49.853-15.123-82.109-55.836-92.145-113.289c4.543,0.51,9.48,0.764,14.729,0.764c18.11,0,39.905-3.013,61.806-8.847
				c14.91-3.972,46.301-13.852,67.08-30.996c1.417,7.015,2.825,13.801,4.336,20.141c-9.18,10.261-22.741,19.466-39.566,26.789
				c-5.059,2.202-7.375,8.088-5.173,13.147c1.637,3.761,5.309,6.005,9.165,6.005c1.331,0,2.685-0.268,3.982-0.832
				c15.215-6.623,27.982-14.487,38.145-23.48c6.014,14.55,14.271,21.193,24.58,19.723c18.318-2.617,32.094-28.306,52.945-67.191
				c23.184-43.237,53.116-99.031,98.489-140.757c6.047,2.328,11.839,5.338,15.928,11.34
				C369.302,145.261,368.784,145.96,368.278,146.678z M487.736,81.376c-44.375,4.608-78.881,20.196-104.825,47.447
				c-3.762-4.269-7.994-7.402-12.23-9.802c31.493-24.356,69.747-41.648,117.065-44.853c2.016-0.145,4.07,2.536,4.26,4.738
				C492.062,79.559,492.177,80.914,487.736,81.376z"/>
			<path d="M104.383,336.077l-0.23,0.062c-5.319,1.469-8.446,6.972-6.977,12.291c1.224,4.43,5.239,7.336,9.62,7.336
				c0.88,0,1.773-0.117,2.663-0.363l0.309-0.083c5.309-1.499,8.422-7.024,6.923-12.334
				C115.191,337.674,109.695,334.578,104.383,336.077z"/>
			<path d="M97.228,181.528c1.764,1.264,3.797,1.872,5.812,1.872c3.11,0,6.178-1.45,8.128-4.171
				c9.396-13.107,6.391-24.592,4.197-32.978c-1.978-7.558-3.283-12.55,1.811-20.316c3.027-4.614,1.741-10.807-2.872-13.834
				c-4.613-3.027-10.806-1.741-13.833,2.872c-9.969,15.191-6.77,27.411-4.437,36.334c2.009,7.681,2.673,11.007-1.106,16.28
				C91.715,172.072,92.745,178.314,97.228,181.528z"/>
			<path d="M26.086,92.578c0.774,0.184,1.547,0.271,2.311,0.271c4.525,0,8.626-3.097,9.714-7.692l0.105-0.439
				c1.27-5.37-2.052-10.753-7.421-12.022c-5.369-1.272-10.752,2.052-12.022,7.421l-0.106,0.44
				C17.395,85.924,20.718,91.308,26.086,92.578z"/>
			<path d="M37.869,184.508c1.736,0,3.496-0.453,5.096-1.405c4.743-2.819,6.303-8.95,3.483-13.693
				c-11.54-19.409-12.954-42.316-12.109-58.116c0.295-5.51-3.933-10.215-9.443-10.51c-5.502-0.285-10.216,3.934-10.511,9.443
				c-0.992,18.565,0.784,45.673,14.888,69.394C31.14,182.764,34.461,184.508,37.869,184.508z"/>
		</g>
	</g>
</g>
<g>
</g>
<g>
</g>
<g>
</g>
<g>
</g>
<g>
</g>
<g>
</g>
<g>
</g>
<g>
</g>
<g>
</g>
<g>
</g>
<g>
</g>
<g>
</g>
<g>
</g>
<g>
</g>
<g>
</g>
</svg>
