<?xml version="1.0" encoding="iso-8859-1"?>
<!-- Generator: Adobe Illustrator 19.0.0, SVG Export Plug-In . SVG Version: 6.00 Build 0)  -->
<svg version="1.1" id="Capa_1" xmlns="http://www.w3.org/2000/svg" xmlns:xlink="http://www.w3.org/1999/xlink" x="0px" y="0px"
	 viewBox="0 0 512 512" style="enable-background:new 0 0 512 512;" xml:space="preserve">
<g>
	<g>
		<g>
			<path d="M184.281,150.88L183.501,9.944c-0.03-5.501-4.499-9.944-10-9.944h-44.047c-5.5,0-9.968,4.442-10,9.942l-0.813,140.952
				C93.07,162.985,76.91,188.73,76.91,218.326l0.004,265.375c0,15.42,13.396,27.965,29.863,27.965h89.402
				c16.467,0,29.863-12.545,29.863-27.965l0.004-265.375C226.046,188.715,209.872,162.964,184.281,150.88z M139.395,20h24.161
				l0.266,48.051h-24.704L139.395,20z M206.044,483.701c-0.002,4.317-4.519,7.965-9.865,7.965h-89.402
				c-5.347,0-9.863-3.647-9.863-7.965v-20.026h109.13V483.701z M206.041,443.675H96.911L96.91,318.229h109.134L206.041,443.675z
				 M206.044,298.229h-23.805V248.02c0-5.51-4.49-10-10-10c-5.521,0-10,4.49-10,10v50.209H96.91l-0.001-79.903
				c0-23.519,13.77-43.672,35.08-51.342c3.948-1.421,6.589-5.156,6.613-9.352l0.401-69.581h24.93l0.386,69.567
				c0.023,4.198,2.667,7.936,6.618,9.355c21.328,7.663,35.108,27.82,35.108,51.352L206.044,298.229z"/>
			<path d="M435.091,327.345v-56.312c0-5.523-4.478-10-10-10H267.795c-5.522,0-10,4.477-10,10v56.312
				c0,45.488,34.458,83.075,78.647,88.058V492h-46c-5.522,0-10,4.477-10,10s4.478,10,10,10h112c5.522,0,10-4.477,10-10
				s-4.478-10-10-10h-46v-76.596C400.632,410.421,435.091,372.833,435.091,327.345z M277.795,281.033h137.296v36.312H277.795
				V281.033z M346.443,395.97c-34.455,0-63.053-25.508-67.911-58.625h135.823C409.496,370.461,380.898,395.97,346.443,395.97z"/>
			<path d="M151.476,418.306c18.763,0,34.027-15.26,34.027-34.018s-15.265-34.019-34.027-34.019
				c-18.76,0-34.022,15.261-34.022,34.019C117.453,403.046,132.715,418.306,151.476,418.306z M151.476,370.269
				c7.734,0,14.027,6.289,14.027,14.019c0,7.729-6.293,14.018-14.027,14.018c-7.732,0-14.022-6.289-14.022-14.018
				C137.452,376.558,143.742,370.269,151.476,370.269z"/>
			<path d="M172.239,198.02c-5.521,0-10,4.49-10,10c0,5.51,4.479,10,10,10c5.51,0,10-4.49,10-10
				C182.239,202.51,177.749,198.02,172.239,198.02z"/>
		</g>
	</g>
</g>
<g>
</g>
<g>
</g>
<g>
</g>
<g>
</g>
<g>
</g>
<g>
</g>
<g>
</g>
<g>
</g>
<g>
</g>
<g>
</g>
<g>
</g>
<g>
</g>
<g>
</g>
<g>
</g>
<g>
</g>
</svg>
