<svg height="512pt" viewBox="-60 0 512 512" width="512pt" xmlns="http://www.w3.org/2000/svg"><path d="m221.867188 42.667969h-85.332032c-4.714844 0-8.535156 3.820312-8.535156 8.53125 0 4.714843 3.820312 8.535156 8.535156 8.535156h85.332032c4.710937 0 8.53125-3.820313 8.53125-8.535156 0-4.710938-3.820313-8.53125-8.53125-8.53125zm0 0"/><path d="m136.535156 469.332031h85.332032c4.710937 0 8.53125-3.820312 8.53125-8.53125 0-4.714843-3.820313-8.535156-8.53125-8.535156h-85.332032c-4.714844 0-8.535156 3.820313-8.535156 8.535156 0 4.710938 3.820312 8.53125 8.535156 8.53125zm0 0"/><path d="m315.734375 110.933594h-273.066406c-4.714844 0-8.535157 3.820312-8.535157 8.53125v273.070312c0 4.710938 3.820313 8.53125 8.535157 8.53125h273.066406c4.710937 0 8.53125-3.820312 8.53125-8.53125v-273.070312c0-4.710938-3.820313-8.53125-8.53125-8.53125zm-8.535156 273.066406h-256v-256h256zm0 0"/><path d="m375.6875 230.398438h-17.289062v-128c0-14.136719-11.460938-25.597657-25.597657-25.597657h-54.453125l-11.253906-56.21875c-2.433594-11.9375-12.90625-20.5273435-25.089844-20.582031h-125.609375c-12.1875.0546875-22.660156 8.65625-25.085937 20.597656l-11.257813 56.203125h-54.449219c-14.140624 0-25.601562 11.460938-25.601562 25.597657v307.203124c0 14.136719 11.460938 25.597657 25.601562 25.597657h54.449219l11.257813 56.21875c2.429687 11.9375 12.90625 20.527343 25.085937 20.582031h125.609375c12.1875-.054688 22.664063-8.65625 25.089844-20.597656l11.253906-56.203125h54.453125c14.136719 0 25.597657-11.460938 25.597657-25.597657v-128h17.289062c9.359375-.078124 16.894531-7.710937 16.847656-17.066406v-17.070312c.046875-9.355469-7.488281-16.988282-16.847656-17.066406zm-267.65625-206.429688c.800781-3.988281 4.292969-6.871094 8.363281-6.902344h125.609375c4.066406.027344 7.558594 2.902344 8.363282 6.886719l10.582031 52.847656h-163.5zm142.335938 464.0625c-.800782 3.988281-4.289063 6.871094-8.363282 6.902344h-125.609375c-4.066406-.027344-7.554687-2.902344-8.363281-6.886719l-10.582031-52.847656h163.5zm90.964843-78.429688c0 4.710938-3.820312 8.53125-8.53125 8.53125h-307.199219c-4.714843 0-8.535156-3.820312-8.535156-8.53125v-307.203124c0-4.710938 3.820313-8.53125 8.535156-8.53125h307.199219c4.710938 0 8.53125 3.820312 8.53125 8.53125zm17.066407-145.066406v-17.070312h17.066406l.222656 17.070312zm0 0"/><path d="m153.601562 273.066406c0 4.714844 3.820313 8.535156 8.53125 8.535156h30.601563l57.234375 57.230469c3.347656 3.234375 8.667969 3.1875 11.960938-.101562 3.292968-3.292969 3.335937-8.617188.101562-11.964844l-57.230469-57.230469v-30.601562c0-4.714844-3.820312-8.535156-8.535156-8.535156h-8.53125v-68.265626c0-4.710937-3.820313-8.53125-8.535156-8.53125-4.710938 0-8.53125 3.820313-8.53125 8.53125v68.265626h-8.535157c-4.710937 0-8.53125 3.820312-8.53125 8.535156zm17.066407-25.601562h17.066406v17.070312h-17.066406zm0 0"/><path d="m76.800781 162.132812h8.53125c4.714844 0 8.535157-3.820312 8.535157-8.53125 0-4.714843-3.820313-8.535156-8.535157-8.535156h-8.53125c-4.714843 0-8.535156 3.820313-8.535156 8.535156 0 4.710938 3.820313 8.53125 8.535156 8.53125zm0 0"/><path d="m119.464844 162.132812h25.601562c4.714844 0 8.535156-3.820312 8.535156-8.53125 0-4.714843-3.820312-8.535156-8.535156-8.535156h-25.601562c-4.710938 0-8.53125 3.820313-8.53125 8.535156 0 4.710938 3.820312 8.53125 8.53125 8.53125zm0 0"/></svg>